<?xml version="1.0" encoding="utf-8"?>
<!-- Generator: Adobe Illustrator 16.0.0, SVG Export Plug-In . SVG Version: 6.00 Build 0)  -->
<!DOCTYPE svg PUBLIC "-//W3C//DTD SVG 1.1//EN" "http://www.w3.org/Graphics/SVG/1.1/DTD/svg11.dtd">
<svg version="1.1" id="Layer_1" xmlns="http://www.w3.org/2000/svg" xmlns:xlink="http://www.w3.org/1999/xlink" x="0px" y="0px"
	 width="100px" height="100px" viewBox="0 0 100 100" enable-background="new 0 0 100 100" xml:space="preserve">
<title  id="simpleicons-github-icon">GitHub icon</title>
<path fill="#FFFFFF" d="M50,1.237c-27.625,0-50,22.388-50,50C0,73.334,14.325,92.07,34.188,98.675
	c2.5,0.472,3.417-1.075,3.417-2.403c0-1.188-0.042-4.334-0.063-8.5C23.633,90.787,20.7,81.063,20.7,81.063
	c-2.275-5.771-5.563-7.313-5.563-7.313c-4.529-3.1,0.35-3.037,0.35-3.037c5.021,0.35,7.659,5.149,7.659,5.149
	c4.458,7.646,11.704,5.438,14.563,4.159c0.45-3.234,1.737-5.438,3.167-6.688C29.771,72.084,18.1,67.783,18.1,48.625
	c0-5.458,1.938-9.917,5.146-13.417c-0.563-1.263-2.25-6.346,0.438-13.233c0,0,4.188-1.342,13.75,5.125
	c4-1.113,8.25-1.663,12.5-1.688c4.25,0.025,8.5,0.575,12.5,1.688c9.5-6.467,13.688-5.125,13.688-5.125
	c2.688,6.887,1,11.971,0.5,13.233c3.188,3.5,5.125,7.958,5.125,13.417c0,19.209-11.688,23.438-22.813,24.666
	c1.75,1.5,3.375,4.567,3.375,9.25c0,6.692-0.063,12.067-0.063,13.692c0,1.313,0.875,2.875,3.438,2.375
	C85.688,92.05,100,73.3,100,51.237C100,23.625,77.612,1.237,50,1.237"/>
</svg>
