<?xml version="1.0" encoding="utf-8"?>
<!-- Generator: Adobe Illustrator 16.0.0, SVG Export Plug-In . SVG Version: 6.00 Build 0)  -->
<!DOCTYPE svg PUBLIC "-//W3C//DTD SVG 1.1//EN" "http://www.w3.org/Graphics/SVG/1.1/DTD/svg11.dtd">
<svg version="1.1" id="Layer_1" xmlns="http://www.w3.org/2000/svg" xmlns:xlink="http://www.w3.org/1999/xlink" x="0px" y="0px"
	 width="100px" height="100px" viewBox="0 0 100 100" enable-background="new 0 0 100 100" xml:space="preserve">
<title  id="simpleicons-linkedin-icon">LinkedIn icon</title>
<path fill="#FFFFFF" d="M85.195,85.217H70.388V62.013c0-5.534-0.112-12.654-7.717-12.654c-7.721,0-8.899,6.021-8.899,12.245v23.613
	H38.962V37.5h14.225v6.504h0.191c1.988-3.75,6.821-7.708,14.042-7.708c15.004,0,17.779,9.875,17.779,22.729v26.191H85.195z
	 M22.237,30.971c-4.767,0-8.596-3.858-8.596-8.604c0-4.742,3.833-8.596,8.596-8.596c4.75,0,8.6,3.854,8.6,8.596
	C30.837,27.112,26.983,30.971,22.237,30.971z M29.663,85.217h-14.85V37.5h14.85V85.217z M92.604,0H7.379C3.3,0,0,3.225,0,7.204
	v85.592C0,96.779,3.3,100,7.379,100h85.212c4.074,0,7.408-3.221,7.408-7.204V7.204C100,3.225,96.666,0,92.592,0H92.604z"/>
</svg>
