<?xml version="1.0" encoding="utf-8"?>
<!-- Generator: Adobe Illustrator 16.0.0, SVG Export Plug-In . SVG Version: 6.00 Build 0)  -->
<!DOCTYPE svg PUBLIC "-//W3C//DTD SVG 1.1//EN" "http://www.w3.org/Graphics/SVG/1.1/DTD/svg11.dtd">
<svg version="1.1" id="Layer_1" xmlns="http://www.w3.org/2000/svg" xmlns:xlink="http://www.w3.org/1999/xlink" x="0px" y="0px"
	 width="100px" height="100px" viewBox="0 0 100 100" enable-background="new 0 0 100 100" xml:space="preserve">
<title>Svelte icon</title>
<path fill="#119497" d="M86.166,13.208C77.024-0.067,59.113-3.905,45.333,4.458L22,19.292c-6.375,3.993-10.752,10.506-12.042,17.917
	C8.828,43.365,9.811,49.723,12.75,55.25c-2.013,3.016-3.362,6.424-3.958,10c-1.336,7.525,0.405,15.271,4.833,21.5
	c9.154,13.249,27.022,17.114,40.834,8.834L77.791,80.75c6.359-4.001,10.721-10.514,12-17.916c1.122-6.145,0.139-12.486-2.791-18
	C93.193,35.107,92.863,22.595,86.166,13.208L86.166,13.208z M43,88.041c-7.504,1.951-15.427-0.994-19.833-7.375
	c-2.708-3.75-3.708-8.375-2.917-12.957l0.458-2.209l0.417-1.375l1.25,0.834c2.75,2.082,5.833,3.582,9.125,4.582l0.833,0.293
	l-0.083,0.832c-0.083,1.168,0.25,2.459,0.917,3.459c1.375,1.959,3.75,2.916,6.042,2.291c0.5-0.166,1-0.332,1.417-0.582L63.875,61
	c1.166-0.75,1.916-1.875,2.209-3.209C66.334,56.416,66,55,65.25,53.875c-1.375-1.916-3.75-2.791-6.041-2.209
	c-0.5,0.168-1.043,0.375-1.459,0.625l-8.792,5.584c-8.325,4.945-19.057,2.617-24.583-5.334c-2.68-3.749-3.732-8.422-2.917-12.958
	c0.804-4.497,3.486-8.437,7.375-10.833l23.208-14.833c1.459-0.917,3.043-1.583,4.75-2.083c7.5-1.958,15.418,1,19.834,7.333
	c3.134,4.4,4.014,10.019,2.375,15.167l-0.416,1.375l-1.209-0.833c-2.779-2.027-5.877-3.576-9.166-4.583l-0.834-0.25l0.084-0.833
	c0.082-1.208-0.25-2.5-0.918-3.5c-1.375-1.958-3.75-2.792-6.041-2.208c-0.5,0.167-1,0.333-1.416,0.583L35.792,39.042
	c-1.167,0.792-1.917,1.875-2.167,3.25c-0.25,1.333,0.083,2.792,0.833,3.875c1.333,1.958,3.75,2.792,6,2.208
	c0.542-0.167,1.042-0.333,1.458-0.583l8.875-5.667c1.459-0.958,3.084-1.667,4.75-2.125c7.543-1.958,15.418,1,19.834,7.375
	c2.709,3.75,3.75,8.375,3,12.916c-0.784,4.482-3.435,8.42-7.291,10.834l-23.25,14.791C46.321,86.831,44.696,87.545,43,88.041z"/>
</svg>
